<svg xmlns="http://www.w3.org/2000/svg" width="12" height="11.368" viewBox="0 0 12 11.368">
  <g id="Group_1773" data-name="Group 1773" transform="translate(0 0)">
    <g id="Edit">
      <path id="Edit_2" d="M11.487,11.368H7.064a.516.516,0,0,1,0-1.032h4.423a.516.516,0,0,1,0,1.032Zm-8.572,0H.485a.513.513,0,0,1-.349-.143A.516.516,0,0,1,0,10.867L.065,8.409a1.862,1.862,0,0,1,.55-1.293L5.679,2.023a.215.215,0,0,1,.308,0L9.333,5.394a.221.221,0,0,1,0,.31L4.242,10.815A1.863,1.863,0,0,1,2.914,11.367Zm7.258-6.6a.215.215,0,0,1-.154-.065L6.673,1.334a.219.219,0,0,1,0-.309L7.1.594a2.023,2.023,0,0,1,2.864,0l.79.793a2.033,2.033,0,0,1,.562,1.807A2.126,2.126,0,0,1,10.7,4.32l-.377.378A.213.213,0,0,1,10.173,4.763Z" fill="#3aa0ff"/>
    </g>
  </g>
</svg>
