<svg xmlns="http://www.w3.org/2000/svg" width="22" height="22" viewBox="0 0 22 22">
  <g id="Grupo_5" data-name="Grupo 5" transform="translate(-96 1)">
    <g id="Group_1626" data-name="Group 1626" transform="translate(97)">
      <path id="Chat" d="M0,10.015A10.019,10.019,0,1,1,5.08,18.7a1.7,1.7,0,0,0-1.49-.36l-2.02.6a.624.624,0,0,1-.82-.781l.67-2.243a1.047,1.047,0,0,0-.07-.9A10.59,10.59,0,0,1,0,10.015Z" fill="none" stroke="#fff" stroke-width="2"/>
    </g>
    <path id="Chat-path" d="M0,1.272A1.292,1.292,0,0,0,1.28,2.564,1.282,1.282,0,1,0,0,1.272Z" transform="translate(105.7 8.743)" fill="#fff"/>
    <path id="Chat-path-2" data-name="Chat-path" d="M0,1.282A1.28,1.28,0,1,0,1.28,0,1.284,1.284,0,0,0,0,1.282Z" transform="translate(110.31 8.743)" fill="#fff"/>
    <path id="Chat-path-3" data-name="Chat-path" d="M1.28,2.564A1.29,1.29,0,0,1,0,1.282a1.28,1.28,0,1,1,2.56,0A1.29,1.29,0,0,1,1.28,2.564Z" transform="translate(101.09 8.743)" fill="#fff"/>
  </g>
</svg>
