<svg xmlns="http://www.w3.org/2000/svg" width="22.041" height="21.172" viewBox="0 0 22.041 21.172">
  <g id="Componente_1_6" data-name="Componente 1 – 6" transform="translate(1.02 1)">
    <g id="Group_1625" data-name="Group 1625" transform="translate(0 0)">
      <path id="Heart_2" d="M13.85,0a5.842,5.842,0,0,1,1.86.29c3.691,1.2,5.021,5.25,3.91,8.79a12.728,12.728,0,0,1-3.009,4.809,38.456,38.456,0,0,1-6.331,4.96L10.03,19l-.26-.161A38.094,38.094,0,0,1,3.4,13.879,12.933,12.933,0,0,1,.39,9.08C-.74,5.54.59,1.49,4.321.269A4.519,4.519,0,0,1,5.21.06h.12A5.8,5.8,0,0,1,6.17,0h.11A6.237,6.237,0,0,1,8.111.33H8.17a.349.349,0,0,1,.09.059A3.526,3.526,0,0,1,8.89.65l.38.17a2.621,2.621,0,0,1,.284.189c.056.041.107.078.146.1l.05.029A2.377,2.377,0,0,1,10,1.3,6.263,6.263,0,0,1,13.85,0Z" transform="translate(0 0)" fill="none" stroke="#fff" stroke-width="2"/>
    </g>
    <path id="Heart_2-path" d="M2.372,4.082a.822.822,0,0,0,.79-.761V3.2A3.3,3.3,0,0,0,1.052.042a.8.8,0,0,0-1.01.5.818.818,0,0,0,.5,1.029,1.674,1.674,0,0,1,1.07,1.57v.031a.86.86,0,0,0,.19.62A.838.838,0,0,0,2.372,4.082Z" transform="translate(14.138 3.118)" fill="#fff"/>
  </g>
</svg>
