<svg id="icon-google" xmlns="http://www.w3.org/2000/svg" width="20" height="20" viewBox="0 0 20 20">
  <g id="Group_202" data-name="Group 202">
    <path id="Vector" d="M4.432,6.685l-.7,2.6-2.544.054A10.018,10.018,0,0,1,1.118,0h0L3.384.415l.992,2.252a5.968,5.968,0,0,0,.056,4.018Z" transform="translate(0 5.401)" fill="#fbbb00"/>
    <path id="Vector_2" d="M9.605,0A10.009,10.009,0,0,1,9.78,1.868a10.021,10.021,0,0,1-.219,2.088,10,10,0,0,1-3.521,5.71h0L3.187,9.52,2.783,7A5.959,5.959,0,0,0,5.347,3.956H0V0H9.605Z" transform="translate(10.22 8.132)" fill="#518ef8"/>
    <path id="Vector_3" d="M15.068,5.712h0a9.955,9.955,0,0,1-6.26,2.2A10,10,0,0,1,0,2.653L3.241,0A5.946,5.946,0,0,0,8.808,3.859a5.913,5.913,0,0,0,3-.814Z" transform="translate(1.192 12.086)" fill="#28b446"/>
    <path id="Vector_4" d="M15.265,2.3l-3.24,2.652A5.946,5.946,0,0,0,3.258,8.068L0,5.4H0A10,10,0,0,1,15.265,2.3Z" transform="translate(1.118)" fill="#f14336"/>
  </g>
</svg>
