<svg xmlns="http://www.w3.org/2000/svg" xmlns:xlink="http://www.w3.org/1999/xlink" width="206" height="38.018" viewBox="0 0 206 38.018">
  <defs>
    <clipPath id="clip-path">
      <rect id="Retângulo_6" data-name="Retângulo 6" width="206" height="38.018"/>
    </clipPath>
  </defs>
  <g id="Grupo_17" data-name="Grupo 17" transform="translate(0 0)">
    <g id="Grupo_16" data-name="Grupo 16" transform="translate(0 0)" clip-path="url(#clip-path)">
      <path id="Caminho_1" data-name="Caminho 1" d="M90.227,32.467a11.541,11.541,0,0,1-4.491-.881A11.105,11.105,0,0,1,82.115,29.2a10.98,10.98,0,0,1-2.381-3.621,11.6,11.6,0,0,1-.871-4.472,11.463,11.463,0,0,1,.871-4.453,10.809,10.809,0,0,1,2.381-3.582,11.007,11.007,0,0,1,3.63-2.352,11.9,11.9,0,0,1,4.521-.861,10.939,10.939,0,0,1,7.114,2.41,10.617,10.617,0,0,1,3.765,6.378H95.4a5.453,5.453,0,0,0-2.071-2.468,5.622,5.622,0,0,0-3.1-.881,5.168,5.168,0,0,0-3.921,1.675,5.824,5.824,0,0,0-1.577,4.152,5.939,5.939,0,0,0,1.587,4.192,5.122,5.122,0,0,0,3.911,1.713,5.29,5.29,0,0,0,3.1-.929A6,6,0,0,0,95.4,23.445h5.828a10.714,10.714,0,0,1-3.785,6.533,11.006,11.006,0,0,1-7.212,2.488" transform="translate(-21.836 -2.729)"/>
      <path id="Caminho_2" data-name="Caminho 2" d="M130.874,10.454h4.347V31.864h-4.54l-.513-1.955a10.184,10.184,0,0,1-6.93,2.555,11.38,11.38,0,0,1-5.75-1.472,10.48,10.48,0,0,1-4.026-4.075,11.7,11.7,0,0,1-1.452-5.8,11.553,11.553,0,0,1,1.452-5.76,10.456,10.456,0,0,1,4.026-4.047,11.447,11.447,0,0,1,5.75-1.461,10.226,10.226,0,0,1,7.027,2.613l.608-2.012h0M119.53,25.313a6.046,6.046,0,0,0,8.344.009,5.712,5.712,0,0,0,1.655-4.2,5.713,5.713,0,0,0-1.655-4.2,6.048,6.048,0,0,0-8.344.009,5.722,5.722,0,0,0-1.655,4.192,5.721,5.721,0,0,0,1.655,4.191" transform="translate(-31.014 -2.728)"/>
      <path id="Caminho_3" data-name="Caminho 3" d="M271.643,10.452h4.347V31.862h-4.54l-.513-1.955a10.183,10.183,0,0,1-6.93,2.555,11.38,11.38,0,0,1-5.75-1.472,10.48,10.48,0,0,1-4.026-4.075,11.7,11.7,0,0,1-1.452-5.8,11.553,11.553,0,0,1,1.452-5.76,10.456,10.456,0,0,1,4.026-4.047,11.447,11.447,0,0,1,5.75-1.461,10.226,10.226,0,0,1,7.027,2.613l.608-2.012h0M260.3,25.311a6.046,6.046,0,0,0,8.344.009,5.712,5.712,0,0,0,1.655-4.2,5.714,5.714,0,0,0-1.655-4.2,6.048,6.048,0,0,0-8.344.009,5.722,5.722,0,0,0-1.655,4.192,5.721,5.721,0,0,0,1.655,4.191" transform="translate(-69.991 -2.728)"/>
      <path id="Caminho_4" data-name="Caminho 4" d="M160.675,9.854a11.385,11.385,0,0,1,5.74,1.462,10.455,10.455,0,0,1,4.017,4.055,11.648,11.648,0,0,1,1.452,5.789,11.7,11.7,0,0,1-1.452,5.8,10.5,10.5,0,0,1-4.017,4.075,11.325,11.325,0,0,1-5.74,1.472,10.194,10.194,0,0,1-5.885-1.8v8.884H149V10.456h3.814l.987,1.955a10.016,10.016,0,0,1,6.872-2.555m-4.656,15.5a6.046,6.046,0,0,0,8.344.009,5.712,5.712,0,0,0,1.655-4.2,5.713,5.713,0,0,0-1.655-4.2,6.048,6.048,0,0,0-8.344.009,5.721,5.721,0,0,0-1.655,4.191,5.722,5.722,0,0,0,1.655,4.192" transform="translate(-41.256 -2.728)"/>
      <path id="Caminho_5" data-name="Caminho 5" d="M230.093,7.125a11.514,11.514,0,0,1,5.789,1.461,10.4,10.4,0,0,1,4.018,4.046,11.7,11.7,0,0,1,1.442,5.8,11.7,11.7,0,0,1-1.442,5.8,10.389,10.389,0,0,1-4.018,4.046,11.514,11.514,0,0,1-5.789,1.462,10.113,10.113,0,0,1-6.7-2.381l-.7,1.78h-4.259V0h5.789V8.885h0a10.144,10.144,0,0,1,5.864-1.761m-4.646,15.468a5.832,5.832,0,0,0,10.009-4.162,5.713,5.713,0,0,0-1.654-4.2,6.061,6.061,0,0,0-8.354.009,5.706,5.706,0,0,0-1.665,4.192,5.647,5.647,0,0,0,1.665,4.162" transform="translate(-60.483 0)"/>
      <path id="Caminho_6" data-name="Caminho 6" d="M199.711,10.683h0V20.826a5.457,5.457,0,0,1-1.542,3.98,5.29,5.29,0,0,1-7.533,0,5.482,5.482,0,0,1-1.532-3.98V10.684h-5.788V20.826a10.759,10.759,0,0,0,1.405,5.431,10.263,10.263,0,0,0,3.851,3.883,10.6,10.6,0,0,0,5.392,1.412c.192,0,.382-.005.571-.014a10.316,10.316,0,0,0,5.29-1.9V31a4.62,4.62,0,0,1-1.547,3.65,5.552,5.552,0,0,1-3.744,1.362,6.569,6.569,0,0,1-2.962-.759,3.765,3.765,0,0,1-1.909-2.143h-5.746v0a9.006,9.006,0,0,0,3.637,5.768,11.858,11.858,0,0,0,6.726,2.088l.281,0a10.887,10.887,0,0,0,8.014-2.895,10.632,10.632,0,0,0,2.923-7.909V10.684h-5.787Z" transform="translate(-50.757 -2.958)"/>
      <path id="Caminho_7" data-name="Caminho 7" d="M45.3,36.848V45.3A19.009,19.009,0,0,1,26.287,26.288h8.45A10.559,10.559,0,0,0,45.3,36.848" transform="translate(-7.279 -7.279)" fill="#00e957"/>
      <path id="Caminho_8" data-name="Caminho 8" d="M38.018,19.009h-8.45a10.56,10.56,0,0,0-21.119,0H0a19.009,19.009,0,1,1,38.018,0" transform="translate(0 0)" fill="#00e957"/>
      <path id="Caminho_9" data-name="Caminho 9" d="M19.009,26.288A19.009,19.009,0,0,1,0,45.3V36.848a10.56,10.56,0,0,0,10.56-10.56Z" transform="translate(0 -7.279)" fill="#00e957"/>
    </g>
  </g>
</svg>
