<svg xmlns="http://www.w3.org/2000/svg" width="19.009" height="19.009" viewBox="0 0 19.009 19.009">
  <g id="Grupo_21" data-name="Grupo 21" transform="translate(-62.5 25)">
    <path id="Caminho_10" data-name="Caminho 10" d="M35.792,31.568v4.224a9.5,9.5,0,0,1-9.5-9.5h4.225a5.28,5.28,0,0,0,5.28,5.28" transform="translate(45.717 -41.783)" fill="#00e957"/>
    <path id="Caminho_11" data-name="Caminho 11" d="M19.009,9.5H14.784a5.28,5.28,0,1,0-10.56,0H0a9.5,9.5,0,1,1,19.009,0" transform="translate(62.5 -25)" fill="#00e957"/>
    <path id="Caminho_12" data-name="Caminho 12" d="M9.5,26.288a9.5,9.5,0,0,1-9.5,9.5V31.568a5.28,5.28,0,0,0,5.28-5.28Z" transform="translate(62.5 -41.783)" fill="#00e957"/>
  </g>
</svg>
